<svg xmlns="http://www.w3.org/2000/svg" viewBox="0 0 59 29">
  <title>keys.justworks checker key mark</title>
  <g fill="#fefefe">
    <rect x="6" y="0" width="5" height="5"/><rect x="18" y="0" width="5" height="5"/>
    <rect x="0" y="6" width="5" height="5"/><rect x="12" y="6" width="5" height="5"/><rect x="24" y="6" width="5" height="5"/>
    <rect x="6" y="12" width="5" height="5"/><rect x="18" y="12" width="5" height="5"/>
    <rect x="0" y="18" width="5" height="5"/><rect x="12" y="18" width="5" height="5"/><rect x="24" y="18" width="5" height="5"/>
    <rect x="6" y="24" width="5" height="5"/><rect x="18" y="24" width="5" height="5"/>
    <rect x="30" y="12" width="5" height="5"/><rect x="36" y="12" width="5" height="5"/><rect x="42" y="12" width="5" height="5"/><rect x="48" y="12" width="5" height="5"/><rect x="54" y="12" width="5" height="5"/>
  </g>
  <g fill="#f7931a">
    <rect x="42" y="18" width="5" height="5"/><rect x="54" y="18" width="5" height="5"/><rect x="54" y="24" width="5" height="5"/>
  </g>
</svg>
